<?xml version="1.0" encoding="UTF-8"?>
<!DOCTYPE svg PUBLIC "-//W3C//DTD SVG 1.1//EN" "http://www.w3.org/Graphics/SVG/1.1/DTD/svg11.dtd">
<svg xmlns="http://www.w3.org/2000/svg" version="1.1" width="512px" height="512px" style="shape-rendering:geometricPrecision; text-rendering:geometricPrecision; image-rendering:optimizeQuality; fill-rule:evenodd; clip-rule:evenodd" xmlns:xlink="http://www.w3.org/1999/xlink">
    <g><path style="opacity:0.988" fill="#000000" d="M 319.5,175.5 C 316.833,175.5 314.167,175.5 311.5,175.5C 311.334,170.489 311.501,165.489 312,160.5C 318.649,153.512 324.982,146.179 331,138.5C 339.806,118.732 336.139,101.732 320,87.5C 319.667,94.1667 319.333,100.833 319,107.5C 314.768,122.372 304.935,128.872 289.5,127C 280.573,123.74 274.739,117.573 272,108.5C 271.667,101.5 271.333,94.5 271,87.5C 252.647,105.085 250.647,124.418 265,145.5C 270.711,149.544 275.378,154.544 279,160.5C 279.5,202.832 279.667,245.165 279.5,287.5C 290.167,287.5 300.833,287.5 311.5,287.5C 311.5,282.167 311.5,276.833 311.5,271.5C 299.087,272.974 291.753,267.64 289.5,255.5C 293.038,238.68 297.205,222.013 302,205.5C 305.915,198.309 311.749,193.643 319.5,191.5C 327.5,191.5 335.5,191.5 343.5,191.5C 343.177,183.981 346.51,178.814 353.5,176C 373.5,175.333 393.5,175.333 413.5,176C 420.49,178.814 423.823,183.981 423.5,191.5C 430.175,191.666 436.842,191.5 443.5,191C 448.573,185.256 454.24,180.256 460.5,176C 468.833,175.333 477.167,175.333 485.5,176C 490,177.833 493.167,181 495,185.5C 495.667,205.5 495.667,225.5 495,245.5C 493.167,250 490,253.167 485.5,255C 477.167,255.667 468.833,255.667 460.5,255C 454.24,250.744 448.573,245.744 443.5,240C 436.842,239.5 430.175,239.334 423.5,239.5C 423.167,249.833 417.833,255.167 407.5,255.5C 394.167,255.5 380.833,255.5 367.5,255.5C 367.5,258.167 367.5,260.833 367.5,263.5C 367.5,271.5 367.5,279.5 367.5,287.5C 378.167,287.5 388.833,287.5 399.5,287.5C 399.5,282.167 399.5,276.833 399.5,271.5C 402.167,271.5 404.833,271.5 407.5,271.5C 410.167,271.5 412.833,271.5 415.5,271.5C 415.5,276.833 415.5,282.167 415.5,287.5C 422.841,287.334 430.174,287.5 437.5,288C 442,289.833 445.167,293 447,297.5C 447.667,360.167 447.667,422.833 447,485.5C 445.167,490 442,493.167 437.5,495C 310.833,495.667 184.167,495.667 57.5,495C 53,493.167 49.8333,490 48,485.5C 47.3333,422.833 47.3333,360.167 48,297.5C 49.8333,293 53,289.833 57.5,288C 64.8258,287.5 72.1591,287.334 79.5,287.5C 79.6666,263.498 79.5,239.498 79,215.5C 50.8427,196.038 41.5094,169.704 51,136.5C 62.3185,110.171 82.3185,96.5044 111,95.5C 140.327,96.5008 160.66,110.501 172,137.5C 181.29,169.554 172.457,195.22 145.5,214.5C 144.829,238.732 144.162,262.899 143.5,287C 154.161,287.5 164.828,287.667 175.5,287.5C 175.829,281.463 175.496,275.463 174.5,269.5C 171.417,267.583 169.25,264.916 168,261.5C 167.333,252.167 167.333,242.833 168,233.5C 173.048,224.104 180.882,220.77 191.5,223.5C 199.5,223.5 207.5,223.5 215.5,223.5C 215.333,177.165 215.5,130.832 216,84.5C 219.372,77.5885 222.872,70.7551 226.5,64C 213.833,63.3333 201.167,63.3333 188.5,64C 192.128,70.7551 195.628,77.5885 199,84.5C 199.5,125.499 199.667,166.499 199.5,207.5C 196.833,207.5 194.167,207.5 191.5,207.5C 188.833,207.5 186.167,207.5 183.5,207.5C 183.667,168.165 183.5,128.832 183,89.5C 176.998,78.4993 171.831,67.166 167.5,55.5C 171.831,43.834 176.998,32.5007 183,21.5C 184.938,18.8941 187.438,17.0608 190.5,16C 201.833,15.3333 213.167,15.3333 224.5,16C 227.562,17.0608 230.062,18.8941 232,21.5C 238.002,32.5007 243.169,43.834 247.5,55.5C 243.169,67.166 238.002,78.4993 232,89.5C 231.5,134.165 231.333,178.832 231.5,223.5C 239.019,223.177 244.186,226.51 247,233.5C 247.667,242.833 247.667,252.167 247,261.5C 245.75,264.916 243.583,267.583 240.5,269.5C 239.504,275.463 239.171,281.463 239.5,287.5C 247.5,287.5 255.5,287.5 263.5,287.5C 263.833,246.828 263.5,206.161 262.5,165.5C 238.408,145.121 232.908,120.455 246,91.5C 250.364,84.9273 255.53,79.094 261.5,74C 272.415,68.3532 280.915,70.8532 287,81.5C 287.333,88.8333 287.667,96.1667 288,103.5C 289.866,110.347 294.032,112.18 300.5,109C 301.126,108.25 301.626,107.416 302,106.5C 303.204,98.2277 303.871,89.8944 304,81.5C 310.085,70.8532 318.585,68.3532 329.5,74C 352.744,94.4976 357.911,118.998 345,147.5C 341.056,154.71 335.723,160.71 329,165.5C 328.502,168.817 328.335,172.15 328.5,175.5C 325.5,175.5 322.5,175.5 319.5,175.5 Z M 107.5,143.5 C 110.187,143.336 112.854,143.503 115.5,144C 119.333,147.833 123.167,151.667 127,155.5C 127.667,158.167 127.667,160.833 127,163.5C 123.167,167.333 119.333,171.167 115.5,175C 112.833,175.667 110.167,175.667 107.5,175C 103.667,171.167 99.8333,167.333 96,163.5C 95.3333,160.833 95.3333,158.167 96,155.5C 100.037,151.631 103.87,147.631 107.5,143.5 Z M 342.5,239.5 C 343.055,245.266 345.722,249.933 350.5,253.5C 351.499,264.814 351.832,276.147 351.5,287.5C 343.5,287.5 335.5,287.5 327.5,287.5C 327.334,280.159 327.5,272.826 328,265.5C 331.333,263.5 334,260.833 336,257.5C 339.068,251.793 341.235,245.793 342.5,239.5 Z"/></g>
    <g><path style="opacity:1" fill="#c4c3c8" d="M 196.5,31.5 C 203.841,31.3337 211.174,31.5003 218.5,32C 221.167,37 223.833,42 226.5,47C 213.833,47.6667 201.167,47.6667 188.5,47C 191.307,41.885 193.974,36.7183 196.5,31.5 Z"/></g>
    <g><path style="opacity:1" fill="#d7d6d9" d="M 191.5,223.5 C 191.5,218.167 191.5,212.833 191.5,207.5C 194.167,207.5 196.833,207.5 199.5,207.5C 199.667,166.499 199.5,125.499 199,84.5C 195.628,77.5885 192.128,70.7551 188.5,64C 201.167,63.3333 213.833,63.3333 226.5,64C 222.872,70.7551 219.372,77.5885 216,84.5C 215.5,130.832 215.333,177.165 215.5,223.5C 207.5,223.5 199.5,223.5 191.5,223.5 Z"/></g>
    <g><path style="opacity:1" fill="#d6d5d8" d="M 319.5,175.5 C 319.5,180.833 319.5,186.167 319.5,191.5C 311.749,193.643 305.915,198.309 302,205.5C 297.205,222.013 293.038,238.68 289.5,255.5C 291.753,267.64 299.087,272.974 311.5,271.5C 311.5,276.833 311.5,282.167 311.5,287.5C 300.833,287.5 290.167,287.5 279.5,287.5C 279.667,245.165 279.5,202.832 279,160.5C 275.378,154.544 270.711,149.544 265,145.5C 250.647,124.418 252.647,105.085 271,87.5C 271.333,94.5 271.667,101.5 272,108.5C 274.739,117.573 280.573,123.74 289.5,127C 304.935,128.872 314.768,122.372 319,107.5C 319.333,100.833 319.667,94.1667 320,87.5C 336.139,101.732 339.806,118.732 331,138.5C 324.982,146.179 318.649,153.512 312,160.5C 311.501,165.489 311.334,170.489 311.5,175.5C 314.167,175.5 316.833,175.5 319.5,175.5 Z"/></g>
    <g><path style="opacity:1" fill="#d6d5d8" d="M 102.5,111.5 C 132.039,109.891 150.873,123.225 159,151.5C 160.989,175.191 151.655,192.858 131,204.5C 130,206.5 129,208.5 128,210.5C 127.5,236.165 127.333,261.831 127.5,287.5C 116.833,287.5 106.167,287.5 95.5,287.5C 95.6666,261.831 95.5,236.165 95,210.5C 92.7369,204.448 88.5702,200.281 82.5,198C 60.9738,178.052 57.8072,155.552 73,130.5C 80.8857,120.984 90.719,114.65 102.5,111.5 Z M 107.5,143.5 C 103.87,147.631 100.037,151.631 96,155.5C 95.3333,158.167 95.3333,160.833 96,163.5C 99.8333,167.333 103.667,171.167 107.5,175C 110.167,175.667 112.833,175.667 115.5,175C 119.333,171.167 123.167,167.333 127,163.5C 127.667,160.833 127.667,158.167 127,155.5C 123.167,151.667 119.333,147.833 115.5,144C 112.854,143.503 110.187,143.336 107.5,143.5 Z"/></g>
    <g><path style="opacity:0.976" fill="#030303" d="M 102.5,127.5 C 108.509,127.334 114.509,127.501 120.5,128C 130,133.5 137.5,141 143,150.5C 143.667,156.5 143.667,162.5 143,168.5C 137.5,178 130,185.5 120.5,191C 114.5,191.667 108.5,191.667 102.5,191C 93,185.5 85.5,178 80,168.5C 79.3333,162.5 79.3333,156.5 80,150.5C 85.6922,140.975 93.1922,133.309 102.5,127.5 Z M 107.5,143.5 C 103.87,147.631 100.037,151.631 96,155.5C 95.3333,158.167 95.3333,160.833 96,163.5C 99.8333,167.333 103.667,171.167 107.5,175C 110.167,175.667 112.833,175.667 115.5,175C 119.333,171.167 123.167,167.333 127,163.5C 127.667,160.833 127.667,158.167 127,155.5C 123.167,151.667 119.333,147.833 115.5,144C 112.854,143.503 110.187,143.336 107.5,143.5 Z"/></g>
    <g><path style="opacity:1" fill="#d7d7d9" d="M 359.5,191.5 C 375.5,191.5 391.5,191.5 407.5,191.5C 407.5,207.5 407.5,223.5 407.5,239.5C 391.5,239.5 375.5,239.5 359.5,239.5C 359.5,223.5 359.5,207.5 359.5,191.5 Z"/></g>
    <g><path style="opacity:1" fill="#c5c4c9" d="M 466.5,191.5 C 470.833,191.5 475.167,191.5 479.5,191.5C 479.5,207.5 479.5,223.5 479.5,239.5C 475.154,239.666 470.821,239.499 466.5,239C 463,235.5 459.5,232 456,228.5C 455.333,219.833 455.333,211.167 456,202.5C 459.704,198.964 463.204,195.298 466.5,191.5 Z"/></g>
    <g><path style="opacity:1" fill="#c2c1c6" d="M 320.5,207.5 C 328.167,207.5 335.833,207.5 343.5,207.5C 343.5,212.833 343.5,218.167 343.5,223.5C 337.819,223.423 332.985,225.423 329,229.5C 326.236,234.884 324.236,240.551 323,246.5C 319.167,253.668 313.334,256.335 305.5,254.5C 309.155,240.882 312.655,227.215 316,213.5C 317.332,211.34 318.832,209.34 320.5,207.5 Z"/></g>
    <g><path style="opacity:1" fill="#ababb0" d="M 423.5,207.5 C 428.833,207.5 434.167,207.5 439.5,207.5C 439.5,212.833 439.5,218.167 439.5,223.5C 434.167,223.5 428.833,223.5 423.5,223.5C 423.5,218.167 423.5,212.833 423.5,207.5 Z"/></g>
    <g><path style="opacity:1" fill="#3d9ae2" d="M 183.5,239.5 C 199.5,239.5 215.5,239.5 231.5,239.5C 231.5,244.833 231.5,250.167 231.5,255.5C 215.5,255.5 199.5,255.5 183.5,255.5C 183.5,250.167 183.5,244.833 183.5,239.5 Z"/></g>
    <g><path style="opacity:1" fill="#1e80ce" d="M 407.5,255.5 C 407.5,258.167 407.5,260.833 407.5,263.5C 394.167,263.5 380.833,263.5 367.5,263.5C 367.5,260.833 367.5,258.167 367.5,255.5C 380.833,255.5 394.167,255.5 407.5,255.5 Z"/></g>
    <g><path style="opacity:1" fill="#3d9ae2" d="M 367.5,263.5 C 380.833,263.5 394.167,263.5 407.5,263.5C 407.5,266.167 407.5,268.833 407.5,271.5C 404.833,271.5 402.167,271.5 399.5,271.5C 399.5,276.833 399.5,282.167 399.5,287.5C 388.833,287.5 378.167,287.5 367.5,287.5C 367.5,279.5 367.5,271.5 367.5,263.5 Z"/></g>
    <g><path style="opacity:1" fill="#1e80ce" d="M 223.5,279.5 C 212.833,279.5 202.167,279.5 191.5,279.5C 191.5,276.833 191.5,274.167 191.5,271.5C 202.167,271.5 212.833,271.5 223.5,271.5C 223.5,274.167 223.5,276.833 223.5,279.5 Z"/></g>
    <g><path style="opacity:1" fill="#3d9ae2" d="M 191.5,279.5 C 202.167,279.5 212.833,279.5 223.5,279.5C 223.5,282.167 223.5,284.833 223.5,287.5C 212.833,287.5 202.167,287.5 191.5,287.5C 191.5,284.833 191.5,282.167 191.5,279.5 Z"/></g>
    <g><path style="opacity:1" fill="#66cdaa" d="M 79.5,359.5 C 74.1667,359.5 68.8333,359.5 63.5,359.5C 63.5,340.833 63.5,322.167 63.5,303.5C 186.167,303.5 308.833,303.5 431.5,303.5C 431.5,319.5 431.5,335.5 431.5,351.5C 314.167,351.5 196.833,351.5 79.5,351.5C 79.5,354.167 79.5,356.833 79.5,359.5 Z"/></g>
    <g><path style="opacity:1" fill="#000000" d="M 79.5,319.5 C 84.8333,319.5 90.1667,319.5 95.5,319.5C 95.5,324.833 95.5,330.167 95.5,335.5C 90.1667,335.5 84.8333,335.5 79.5,335.5C 79.5,330.167 79.5,324.833 79.5,319.5 Z"/></g>
    <g><path style="opacity:1" fill="#000000" d="M 399.5,319.5 C 404.833,319.5 410.167,319.5 415.5,319.5C 415.5,324.833 415.5,330.167 415.5,335.5C 410.167,335.5 404.833,335.5 399.5,335.5C 399.5,330.167 399.5,324.833 399.5,319.5 Z"/></g>
    <g><path style="opacity:1" fill="#77cdaa" d="M 63.5,359.5 C 68.8333,359.5 74.1667,359.5 79.5,359.5C 79.5,362.167 79.5,364.833 79.5,367.5C 196.833,367.5 314.167,367.5 431.5,367.5C 431.5,383.5 431.5,399.5 431.5,415.5C 308.833,415.5 186.167,415.5 63.5,415.5C 63.5,396.833 63.5,378.167 63.5,359.5 Z"/></g>
    <g><path style="opacity:1" fill="#000000" d="M 79.5,383.5 C 84.8333,383.5 90.1667,383.5 95.5,383.5C 95.5,388.833 95.5,394.167 95.5,399.5C 90.1667,399.5 84.8333,399.5 79.5,399.5C 79.5,394.167 79.5,388.833 79.5,383.5 Z"/></g>
    <g><path style="opacity:1" fill="#000000" d="M 399.5,383.5 C 404.833,383.5 410.167,383.5 415.5,383.5C 415.5,388.833 415.5,394.167 415.5,399.5C 410.167,399.5 404.833,399.5 399.5,399.5C 399.5,394.167 399.5,388.833 399.5,383.5 Z"/></g>
    <g><path style="opacity:1" fill="#66cdaa" d="M 63.5,431.5 C 186.167,431.5 308.833,431.5 431.5,431.5C 431.5,447.5 431.5,463.5 431.5,479.5C 308.833,479.5 186.167,479.5 63.5,479.5C 63.5,463.5 63.5,447.5 63.5,431.5 Z"/></g>
    <g><path style="opacity:1" fill="#000000" d="M 79.5,447.5 C 84.8333,447.5 90.1667,447.5 95.5,447.5C 95.5,452.833 95.5,458.167 95.5,463.5C 90.1667,463.5 84.8333,463.5 79.5,463.5C 79.5,458.167 79.5,452.833 79.5,447.5 Z"/></g>
    <g><path style="opacity:1" fill="#000000" d="M 399.5,447.5 C 404.833,447.5 410.167,447.5 415.5,447.5C 415.5,452.833 415.5,458.167 415.5,463.5C 410.167,463.5 404.833,463.5 399.5,463.5C 399.5,458.167 399.5,452.833 399.5,447.5 Z"/></g>
</svg>
